<svg width="135" height="135" viewBox="0 0 135 135" fill="none" xmlns="http://www.w3.org/2000/svg">
<path d="M115.397 114.797H114.77C115.193 114.225 115.449 113.546 115.511 112.835C115.574 112.124 115.439 111.41 115.122 110.772C114.806 110.135 114.32 109.599 113.719 109.225C113.118 108.85 112.427 108.653 111.721 108.654H110.792C111.355 108.026 111.671 107.212 111.68 106.364V102.808C111.68 102.599 111.627 102.393 111.525 102.211C111.424 102.029 111.277 101.877 111.1 101.769C110.895 101.641 110.662 101.566 110.421 101.554C110.181 101.541 109.941 101.59 109.724 101.696C108.455 102.286 107.064 102.558 105.669 102.491C103.154 102.491 101.182 104.184 101.182 106.344C101.191 107.192 101.509 108.007 102.076 108.633H101.146C100.441 108.632 99.7491 108.83 99.1484 109.204C98.5477 109.578 98.0618 110.114 97.7452 110.751C97.4287 111.389 97.2939 112.103 97.3561 112.814C97.4183 113.525 97.6749 114.204 98.0972 114.776H97.4761C96.9645 114.757 96.4543 114.842 95.9761 115.027C95.4979 115.212 95.0614 115.493 94.6928 115.852C94.3242 116.212 94.0311 116.642 93.8308 117.119C93.6306 117.596 93.5273 118.108 93.5273 118.626C93.5273 119.144 93.6306 119.656 93.8308 120.133C94.0311 120.609 94.3242 121.04 94.6928 121.4C95.0614 121.759 95.4979 122.04 95.9761 122.225C96.4543 122.41 96.9645 122.495 97.4761 122.476H115.391C116.377 122.439 117.31 122.018 117.994 121.3C118.678 120.582 119.061 119.623 119.061 118.626C119.061 117.629 118.678 116.67 117.994 115.952C117.31 115.234 116.377 114.812 115.391 114.776L115.397 114.797ZM102.727 106.364C102.727 105.097 104.052 104.069 105.674 104.069C107.207 104.132 108.734 103.848 110.145 103.239V106.354C110.145 107.616 108.826 108.644 107.204 108.644H105.664C104.052 108.654 102.727 107.626 102.727 106.364ZM98.8878 112.502C98.8891 111.895 99.1281 111.313 99.5523 110.884C99.9766 110.455 100.552 110.213 101.152 110.212H111.726C112.309 110.24 112.858 110.494 113.26 110.92C113.663 111.347 113.887 111.914 113.887 112.504C113.887 113.094 113.663 113.661 113.26 114.088C112.858 114.515 112.309 114.769 111.726 114.797H101.152C100.551 114.795 99.9749 114.553 99.5505 114.123C99.1261 113.692 98.8877 113.109 98.8878 112.502ZM115.397 120.939H97.4812C97.1745 120.954 96.8681 120.906 96.5804 120.797C96.2927 120.688 96.0298 120.522 95.8076 120.308C95.5853 120.093 95.4084 119.836 95.2876 119.55C95.1667 119.265 95.1044 118.957 95.1044 118.647C95.1044 118.336 95.1667 118.029 95.2876 117.743C95.4084 117.458 95.5853 117.2 95.8076 116.986C96.0298 116.771 96.2927 116.605 96.5804 116.496C96.8681 116.388 97.1745 116.34 97.4812 116.354H115.397C115.979 116.382 116.528 116.636 116.931 117.063C117.333 117.49 117.558 118.057 117.558 118.647C117.558 119.236 117.333 119.804 116.931 120.23C116.528 120.657 115.979 120.911 115.397 120.939Z" fill="#803700"/>
<path d="M80.2104 65.8332C79.8972 63.559 78.6704 61.3367 76.576 59.2338C74.3985 57.0947 71.7761 55.4745 68.9004 54.4917C66.0246 53.509 62.9682 53.1884 59.9542 53.5534C55.1443 54.1817 50.4062 56.5338 45.0368 60.9577C38.2094 66.5757 31.2076 73.4192 23.6256 81.81C15.3045 91.0367 9.85803 97.9736 9.9145 109.791C9.94016 115.534 11.6085 119.605 14.7347 121.567C16.3484 122.525 18.1872 123.025 20.058 123.016H60.1955C61.602 123.016 63.7272 123.016 65.4726 122.206C68.3164 120.882 70.0926 117.689 70.7291 112.704C71.0422 110.269 71.1757 107.787 71.304 105.388C71.3656 104.267 71.4221 103.14 71.5042 102.018C71.797 98.2242 72.2836 94.4478 72.9621 90.7044C73.9374 85.9431 75.4261 82.2513 77.0072 78.3415C77.7874 76.41 78.5985 74.4109 79.3993 72.1679C80.1697 70.1531 80.4479 67.98 80.2104 65.8332Z" fill="#F49709"/>
<path d="M100.569 52.3801C100.404 52.3793 100.243 52.3249 100.111 52.2249C99.9789 52.1249 99.882 51.9845 99.8347 51.8245L98.5822 47.6707C98.529 47.4749 98.5535 47.2659 98.6505 47.0881C98.7475 46.9104 98.9092 46.7779 99.1013 46.719C99.2934 46.6601 99.5006 46.6794 99.6788 46.7728C99.8571 46.8662 99.9922 47.0263 100.055 47.219L101.308 51.3728C101.367 51.5704 101.346 51.7837 101.25 51.9658C101.154 52.1478 100.99 52.2838 100.795 52.3438C100.721 52.3664 100.645 52.3786 100.569 52.3801Z" fill="#CFD8DC"/>
<path d="M121.255 52.8833C121.114 52.881 120.976 52.8399 120.857 52.7644C120.737 52.6889 120.64 52.5818 120.576 52.4547C120.512 52.3276 120.484 52.1853 120.494 52.043C120.504 51.9008 120.553 51.7641 120.634 51.6475L123.149 48.1116C123.205 48.0218 123.279 47.9446 123.366 47.8847C123.452 47.8248 123.55 47.7834 123.653 47.7632C123.757 47.743 123.863 47.7444 123.965 47.7672C124.068 47.79 124.165 47.8338 124.25 47.8959C124.335 47.9579 124.407 48.037 124.461 48.1282C124.515 48.2193 124.55 48.3207 124.563 48.426C124.577 48.5313 124.569 48.6384 124.541 48.7406C124.512 48.8427 124.463 48.9379 124.397 49.0202L121.881 52.5562C121.81 52.6575 121.717 52.7401 121.608 52.7971C121.499 52.854 121.378 52.8836 121.255 52.8833Z" fill="#CFD8DC"/>
<path d="M111.137 49.7786H111.096C110.893 49.7665 110.702 49.6734 110.567 49.5197C110.431 49.3659 110.361 49.164 110.372 48.9582L110.619 44.6071C110.63 44.4005 110.722 44.207 110.875 44.0693C111.028 43.9315 111.228 43.8606 111.432 43.8723C111.637 43.884 111.828 43.9773 111.964 44.1317C112.1 44.286 112.17 44.4888 112.159 44.6953L111.907 49.0465C111.897 49.2453 111.811 49.4323 111.667 49.5687C111.524 49.705 111.334 49.7802 111.137 49.7786Z" fill="#CFD8DC"/>
<path d="M104.46 76.3525C104.129 76.3515 103.805 76.4499 103.529 76.6353C103.253 76.8207 103.038 77.0847 102.91 77.3939C102.783 77.7031 102.749 78.0436 102.813 78.3723C102.877 78.701 103.036 79.0031 103.27 79.2403C103.503 79.4775 103.802 79.6393 104.126 79.705C104.451 79.7707 104.788 79.7375 105.094 79.6096C105.4 79.4816 105.662 79.2647 105.846 78.9862C106.03 78.7077 106.128 78.3802 106.128 78.0452C106.128 77.5972 105.953 77.1674 105.64 76.8502C105.327 76.5329 104.903 76.3539 104.46 76.3525Z" fill="#90A4AE"/>
<path d="M121.958 86.5762C121.641 86.5762 121.33 86.6715 121.066 86.8501C120.801 87.0286 120.595 87.2825 120.474 87.5794C120.352 87.8764 120.32 88.2032 120.382 88.5184C120.444 88.8337 120.597 89.1233 120.822 89.3505C121.047 89.5778 121.333 89.7326 121.645 89.7953C121.957 89.858 122.28 89.8259 122.573 89.7028C122.867 89.5798 123.118 89.3715 123.294 89.1043C123.471 88.837 123.565 88.5228 123.565 88.2014C123.564 87.7708 123.394 87.3582 123.093 87.0537C122.792 86.7492 122.384 86.5775 121.958 86.5762Z" fill="#90A4AE"/>
<path d="M91.6721 101.468C91.5039 101.468 91.3404 101.413 91.2067 101.309C91.0731 101.206 90.9769 101.061 90.9328 100.897C89.8343 96.8678 89.6033 93.6694 90.1988 90.8136C90.9431 87.2569 93.1248 84.344 95.9532 83.0719C96.0789 82.7318 96.2334 82.4035 96.4153 82.0905C96.7697 81.4748 97.2457 80.9395 97.8136 80.5179C98.3814 80.0962 99.029 79.7973 99.716 79.6398C99.9161 79.5984 100.124 79.6392 100.295 79.7532C100.465 79.8671 100.584 80.0448 100.625 80.2473C100.665 80.4497 100.625 80.6602 100.512 80.8326C100.4 81.005 100.224 81.125 100.024 81.1663C99.2095 81.3485 98.4886 81.8248 97.9963 82.5059C98.4799 82.4618 98.9673 82.5093 99.4336 82.6461C99.9991 82.8016 100.503 83.1309 100.875 83.5886C101.248 84.0462 101.47 84.6095 101.513 85.2007C101.492 85.7568 101.324 86.2972 101.027 86.7656C100.73 87.234 100.315 87.6134 99.8238 87.8644C99.481 88.0887 99.0937 88.2342 98.6893 88.2907C98.2848 88.3472 97.8731 88.3134 97.483 88.1915C97.0707 88.0145 96.7058 87.7409 96.4184 87.3934C96.1311 87.0459 95.9294 86.6342 95.8301 86.1924C95.7174 85.8077 95.6553 85.4097 95.6453 85.0086C93.5813 86.4441 92.1651 88.6497 91.708 91.1407C91.1639 93.7369 91.3897 96.7069 92.4164 100.487C92.4436 100.585 92.4512 100.688 92.4388 100.79C92.4263 100.891 92.3941 100.989 92.344 101.078C92.2939 101.167 92.2268 101.245 92.1467 101.308C92.0666 101.37 91.9751 101.416 91.8774 101.442C91.8105 101.461 91.7414 101.47 91.6721 101.468ZM97.2315 84.2453C97.1407 84.7465 97.167 85.2621 97.3084 85.7511C97.3481 85.9552 97.4311 86.1482 97.5516 86.3167C97.6721 86.4852 97.8274 86.6253 98.0066 86.7273C98.183 86.7646 98.3651 86.765 98.5417 86.7284C98.7183 86.6917 98.8856 86.6189 99.0332 86.5144C99.2795 86.3957 99.4925 86.2167 99.6529 85.9937C99.8134 85.7706 99.9162 85.5105 99.9521 85.2371C99.9155 84.9763 99.8026 84.7326 99.6278 84.5373C99.4531 84.3421 99.2245 84.2042 98.9717 84.1415C98.4008 84.0043 97.8026 84.0404 97.252 84.2453H97.2315Z" fill="#CFD8DC"/>
<path d="M124.911 106.816C124.801 106.815 124.693 106.791 124.593 106.746C124.493 106.7 124.404 106.634 124.33 106.551C124.263 106.474 124.211 106.385 124.178 106.288C124.145 106.191 124.132 106.088 124.138 105.985C124.145 105.883 124.172 105.783 124.217 105.691C124.263 105.599 124.325 105.517 124.402 105.45C125.908 104.077 127.014 102.313 127.6 100.35C128.186 98.3874 128.231 96.2996 127.729 94.3128C127.498 93.4457 126.774 91.3584 125.065 90.7301C124.962 90.7017 124.867 90.6524 124.785 90.5852C124.703 90.518 124.635 90.4343 124.586 90.3394C124.537 90.2445 124.508 90.1404 124.5 90.0336C124.493 89.9268 124.507 89.8196 124.543 89.7187C124.578 89.6178 124.634 89.5254 124.706 89.4472C124.778 89.369 124.866 89.3067 124.963 89.2642C125.06 89.2217 125.165 89.1999 125.271 89.2002C125.376 89.2005 125.481 89.2228 125.578 89.2659C127.256 89.8837 128.576 91.5764 129.197 93.9078C129.771 96.1749 129.722 98.5578 129.053 100.798C128.384 103.039 127.122 105.052 125.403 106.619C125.267 106.74 125.093 106.81 124.911 106.816Z" fill="#CFD8DC"/>
<path fill-rule="evenodd" clip-rule="evenodd" d="M56.046 67.0533C56.1215 66.6689 56.0824 66.2705 55.9337 65.9086C55.785 65.5466 55.5334 65.2375 55.2108 65.0205C54.8881 64.8035 54.509 64.6882 54.1215 64.6895C53.7341 64.6907 53.3557 64.8083 53.0344 65.0274C52.7131 65.2465 52.4634 65.5572 52.317 65.92C52.1705 66.2829 52.1339 66.6816 52.2118 67.0655C52.2897 67.4494 52.4786 67.8013 52.7546 68.0765C53.0305 68.3516 53.381 68.5377 53.7616 68.611C54.2685 68.7087 54.7931 68.5998 55.221 68.3081C55.6488 68.0163 55.9454 67.5653 56.046 67.0533Z" fill="#803700"/>
<path fill-rule="evenodd" clip-rule="evenodd" d="M76.085 70.8746C76.1606 70.4902 76.1215 70.0918 75.9728 69.7299C75.8241 69.3679 75.5725 69.0588 75.2498 68.8418C74.9272 68.6247 74.5481 68.5095 74.1606 68.5108C73.7731 68.512 73.3947 68.6296 73.0735 68.8487C72.7522 69.0678 72.5025 69.3785 72.356 69.7413C72.2096 70.1042 72.173 70.5029 72.2509 70.8868C72.3288 71.2707 72.5177 71.6226 72.7936 71.8977C73.0695 72.1729 73.4201 72.359 73.8007 72.4323C74.3077 72.5314 74.833 72.4231 75.2612 72.1311C75.6894 71.8391 75.9857 71.3873 76.085 70.8746Z" fill="#803700"/>
<path d="M67.0318 73.1548C66.8662 73.1535 66.705 73.1009 66.5698 73.0042C65.6882 72.333 64.6656 71.8761 63.5814 71.669C62.4971 71.4619 61.3803 71.5102 60.3174 71.81C60.1246 71.8526 59.9229 71.8188 59.7541 71.7154C59.5853 71.612 59.4621 71.447 59.4101 71.2545C59.358 71.0619 59.3811 70.8565 59.4744 70.6806C59.5678 70.5047 59.7244 70.3719 59.9119 70.3094C61.1997 69.9469 62.5527 69.8886 63.8664 70.1388C65.1801 70.3891 66.4194 70.9413 67.4887 71.7528C67.6176 71.8507 67.7129 71.9869 67.7613 72.1425C67.8096 72.298 67.8084 72.4649 67.758 72.6198C67.7075 72.7746 67.6103 72.9095 67.48 73.0055C67.3497 73.1015 67.193 73.1537 67.0318 73.1548Z" fill="#803700"/>
<path d="M125.726 124.055H5.77C5.56578 124.055 5.36993 123.973 5.22553 123.827C5.08113 123.681 5 123.482 5 123.276C5 123.069 5.08113 122.871 5.22553 122.725C5.36993 122.579 5.56578 122.497 5.77 122.497H125.726C125.93 122.497 126.126 122.579 126.27 122.725C126.415 122.871 126.496 123.069 126.496 123.276C126.496 123.482 126.415 123.681 126.27 123.827C126.126 123.973 125.93 124.055 125.726 124.055Z" fill="#CFD8DC"/>
<path opacity="0.2" d="M70.4519 113.358C70.3488 113.169 70.2357 112.985 70.1131 112.808C68.7631 110.856 66.4479 109.506 63.6041 109.012C61.2941 108.607 58.9533 108.779 56.6946 108.95H56.325C48.9279 109.469 39.2464 107.273 34.2927 103.908C32.2856 102.543 30.0321 100.128 27.8504 97.7969C24.4265 94.126 20.8331 90.2992 17.4913 89.7177C17.3511 89.6929 17.2068 89.7079 17.0745 89.7611C16.9422 89.8142 16.8271 89.9035 16.7419 90.0188C11.8549 96.6338 9.87861 102.366 9.91454 109.791C9.94021 115.534 11.6085 119.605 14.7347 121.567C16.3484 122.525 18.1872 123.025 20.058 123.016H60.1955C61.6021 123.016 63.7273 123.016 65.4726 122.206C68.0803 120.991 69.7897 118.192 70.5443 113.898C70.5812 113.713 70.5482 113.52 70.4519 113.358Z" fill="#803700"/>
</svg>
